<?vml version="1.0" encoding="UTF-8"?><svg width="84px" height="54px" viewBox="0 0 84 54" version="1.1" xmlns="http://www.w3.org/2000/svg" xmlns:xlink="http://www.w3.org/1999/xlink"><!--Generator: Sketch 61.2 (89653) - https://sketch.com--><title>zaps_green</title><desc>Created with Sketch.</desc><g id="Page-1" stroke="none" stroke-width="1" fill="none" fill-rule="evenodd"><g id="HOME_1440---static-CTA" transform="translate(-125.000000, -4405.000000)" fill="#22CB8E"><g id="Group-64" transform="translate(112.000000, 4380.000000)"><g id="Group-80"><g id="zaps_green" transform="translate(60.500000, 57.500000) scale(-1, 1) rotate(5.000000) translate(-60.500000, -57.500000) translate(5.000000, 5.000000)"><g id="Group-41" transform="translate(55.612331, 52.790020) rotate(19.000000) translate(-55.612331, -52.790020) translate(11.112331, 13.290020)"><polygon id="Path-6-Copy-4" transform="translate(12.062035, 40.392224) rotate(-9.000000) translate(-12.062035, -40.392224) " points="17.8116667 20.5719864 20.0394723 42.2193815 13.7355068 41.0245375 16.3342911 60.8105082 4.08459841 33.8969962 13.662825 35.7124387 11.8046171 19.9739397"/><polygon id="Path-6-Copy-5" transform="translate(60.434239, 39.453187) rotate(19.000000) translate(-60.434239, -39.453187) " points="64.0390336 3.83996256 73.8972873 6.56082327 61.7654428 32.8925204 77.9876788 35.7251824 42.880799 75.066412 58.5484413 42.1276712 47.8716824 40.2633383"/></g></g></g></g></g></g></svg>