<svg height="24" viewBox="0 0 624 24" width="624" xmlns="http://www.w3.org/2000/svg" xmlns:xlink="http://www.w3.org/1999/xlink"><mask id="a" fill="#fff"><path d="m0 .57575758h177.731343v14.96969692h-177.731343z" fill="#fff" fill-rule="evenodd"/></mask><g fill="#b8b7b8" fill-rule="evenodd"><g transform="translate(0 .769788)"><path d="m28.2378653 6.47092999s-1.361049.79340691-2.2764062 1.31928488c-.9150848.52246829-2.1429167 1.09870465-2.1429167 1.09870465v5.51004708l-.8186453.6331518.1084262.1224863.7987582-.6197754 2.5033385 2.1785249 4.3506711-3.318408-.1029777-.1198634-2.4044473 1.8165739-1.9761908-1.7816903.0002724-.6643635 3.9695447-2.8122013zm.0577547 4.54956571-2.0181447 1.4236736v-4.73578681z"/><path d="m10.6002555.18791104c.4576835.04015144 1.17586.26433031 1.7170133.73638856.5747653.55570707.7058521 1.39916614.5044602 2.16566828-.1789839.68257447-.3798157 1.03752435-1.0797857 1.5095826-.7075327.47512537-1.5629582.43497393-1.5629582.43497393v2.95893804l1.4458764 1.16467058-1.4461565 1.16132467.0002801 4.0304796s1.4486774-.8267293 2.3472383-2.6775992c0 0 .0369732-.1009362.1215635-.2913768.0798285.49548.0341722 1.4995448-.5293891 2.7882945-.4246317.9703264-1.1968675 1.9044051-2.16545346 2.4364116-1.71645307.9474625-3.00351277 1.0380821-4.38356568.7531184-1.61561705-.3309706-3.08334127-1.2352145-4.08497903-2.8117161-.70389141-1.1077894-1.01900396-2.3993274-.99015365-3.7890133.05658021-2.72806729 2.09514832-5.08083013 4.44826878-5.95774872.28654235-.10707051.40054307-.17733553.80696823-.21441985-.18738693.12742506-.40390426.29137677-.6694391.46536634-.75795072.49547992-1.40722262 1.48281498-1.68424156 2.24262521l4.5673113-2.02848419v6.35675361l-3.68331557 1.837486c.41986997.57885 1.69488536 1.4560474 2.78559493 1.5798477 1.85566279.2041031 2.94441161-.6022716 2.94441161-.6022716l-.0002801-4.1177532-1.43803358-1.16132467 1.43887388-1.16132462v-2.962284c-.78428008-.09034074-1.73718042-.34797915-2.29429941-.48516323-.81901252-.20103603-3.55026805-.96419221-3.97966141-1.02776533-.42883317-.06357311-.95822225-.04349739-1.2783766.24118747-.32043445.28775199-.51874528.79326976-.38233656 1.24831941.07702751.25763841.25517114.40848514.38989926.55570708 0 0-.15741622-.01338381-.44339837-.18430626-.51566418-.3078277-.90780424-.91037813-.95514114-1.65317976-.06050161-.97395125.34228225-1.85114867 1.14925047-2.44003645.70109041-.44863658 1.49405363-.73638856 2.41614298-.60589638 1.3450404.19071934 3.15364638.94718361 4.76450173 1.33196824.62406285.15084673 1.10723545.20103603 1.54587215-.05353525.204473-.14722194.5638414-.52531467.2700164-1.02748649-.3428424-.58916662-1.0002372-.5757828-1.55707611-.67950736.47925121-.1003786.58428871-.1003786.94449731-.06691906m-5.4308597 12.63878096v-6.138709l-1.85454239.82338335c-.0005602 0-.47280887 1.05425412-.39017936 2.58391245.06526331 1.195063.73638302 2.6246215 1.2520472 3.223826z"/><path d="m16.4708881 18.9779851c.5741664.140365 1.5869663.2189802 2.8081308-.3889959 1.3520426-.672446 2.0318972-2.0994896 2.0228617-3.5621686l.057225-2.0736473.0002738-4.52948987.8643983-.65612453-.1007598-.12757977-.8507081.63681075-1.9631725-2.16831204-2.5184464 2.14872623v-7.3014256l-3.1470998 2.41639893c.1401875.08813613.58594.16974366.5990825.79349721v10.22759959l-1.3323288.9830987.0911767.1371006.6434387-.477132 1.7920452 1.6555447 2.8209995-2.2300617-.1024026-.1273078-.6631526.5222882-.7017588-.6923038.0065712-5.69838175.8219588-.69556817 1.2258191 1.51191548s-.0024642 3.69029244.0008214 4.91494944c-.0090355 1.3059925-.0134164 2.9354228-.7042231 3.7221194-.6905329.7907769-.9673485.8527987-1.6707502 1.0584496"/><path d="m36.132028 18.2406468c-1.1013249-.1247554-1.5639562-.7886986-1.5513804-1.3124583.0080272-.3354296.3143967-.9932548.9841285-1.0826318.6691967-.092569 1.3533774.2202504 1.9310645.8940358l2.5438036-2.7938285-.1225478-.1087952-.683378.7602363c-.6940808-.7855065-1.6792796-1.2808039-2.6601972-1.4241795v-8.51315677l6.607414 11.96507637s.0634145.1369915.3349997.1369915c.2338576 0 .1776676-.1885961.1776676-.1885961l-.0010703-12.04141916c.5367487-.02234424 1.3565882-.31601144 1.7544672-.72139986 1.2723032-1.29969016.7524115-2.71748561.6130067-2.85474311-.0778634.61952075-.5570842 1.24223354-1.3568558 1.24542557-1.049416.00292604-1.6891798-.76635435-1.6891798-.76635435l-2.5419305 2.88001338.1212099.10879519.72833-.82700301c.8894081.81396887 1.5388045.8905777 2.2104093.93526619l-.0005351 6.98683216-4.9013773-8.85151248c-.4430986-.73097596-1.1192521-1.37310696-2.1783007-1.38268306-1.2174509-.00638407-2.0889318 1.06028755-2.1930171 1.97985957-.1177316 1.03767731.0125758 1.27707991.0125758 1.27707991s.179273-1.15578259.8987732-1.14620648c.6461855.0095761.982523.60036854 1.2415324 1.04432737v2.56400194c-.6662534.04468849-2.4014555.12129732-2.5074139 1.91575288-.0077595.66740127.4091171 1.36672285.7743524 1.60293345.4695882.3067014.8356262.3003173.8356262.3003173s-.5624356-.2968593-.3938655-.88445965c.1506429-.52695175 1.2525029-.61313668 1.292371-.39288628l-.0002675 3.61790543c-.5300594-.0061181-2.2278015.0513385-2.9935915 1.4978623-.4615611.8748835-.4345363 1.8521782.0588658 2.5416577.4021601.5620641 1.2297592 1.280538 2.6543106 1.0379433"/><path d="m49.969481 6.47092999s-1.3615938.79340691-2.2766786 1.31928488c-.9153573.52246829-2.1426442 1.09870465-2.1426442 1.09870465v5.51004708l-.8189179.6331518.1084263.1224863.7987581-.6197754 2.5033386 2.1785249 4.3506711-3.318408-.1029777-.1198634-2.4041749 1.8165739-1.9767357-1.7816903.0005449-.6643635 3.9695447-2.8122013zm.0577547 4.54956571-2.0186896 1.4236736v-4.73578681z"/><path d="m56.6146391 16.7006957-2.2083431-1.7528094-.9702043.6727901-.0984306-.1325111.9865624-.6886807v-4.89860119c.0476641-2.0172929-1.934768-1.51606699-1.8275942-3.65644437.047382-.94077491 1.0012283-1.65234872 1.482382-1.88801378.51528-.24913163 1.0728655-.24913163 1.0728655-.24913163s-.9039259.54000964-.6845017 1.31568435c.3381613 1.1963705 2.4799438 1.30302577 2.520275 2.89692955v5.55819407l1.5816588 1.2092984.4157212-.3105392v-6.01713494l-.8528773-.80826381 2.1956515-1.855694 2.005559 1.69732708-.765164.79210393v5.33168624l1.8783607 1.4807846.3339308-.2041533v-6.41763085l-.8542875-.76301612 2.199882-1.92033356 2.0566077 1.62299159.8212892-.69514459.1108402.12281516-1.8487469 1.55188808v5.23122559l-4.7311565 2.7870423-2.4198702-1.8301075z"/><path d="m150.088789 6.47092999s-1.361499.79340691-2.275974 1.31928488c-.915838.52246829-2.143311 1.09870465-2.143311 1.09870465v5.51004708l-.818861.6331518.109236.1224863.798702-.6197754 2.503163 2.1785249 4.350093-3.318408-.102698-.1198634-2.404278 1.8165739-1.976597-1.7816903v-.6643635l3.970083-2.8122013zm.058023 4.54956571-2.018548 1.4236736v-4.73578681z"/><path d="m130.104375 8.77189625.104987.12022925.807408-.683672 1.198894 1.33254079v4.57688481l-.582128.522048 1.86802 2.0734271 1.916889-1.8551161-.787807-.8007373v-5.53555482l.476873-.3736071 1.325094 1.51921251v4.56422901l-.498085.4875085 1.759005 1.9434425 1.881177-1.8485246-.691412-.712411-.017722-5.55770233.50802-.40524638 1.382018 1.4939011v4.53918131l-.454586.4458501 1.942128 2.0794913 2.607495-2.3642448-.110626-.1168016-.633145.5726708-.971198-1.0572791v-5.18119487l.937635-.69949164-.097469-.12682076-.938709.6997553-1.774042-1.95293424-2.537145 1.96875388-1.776727-1.89914748-2.450149 1.88332784-1.793106-1.87383605z"/><path d="m124.671539 8.59776204.105573.12094219.682601-.58269735 1.067555 1.24814461v5.26284181l-.752983.6495338.105036.1212074.790592-.6654473 1.722217 1.961067 2.488364-2.193138-.104767-.1212075-.733105.6365379-1.028871-1.1717601v-5.14508227l.867959-.74183181-.105036-.12094219-.824172.70045685-1.812478-2.08545709z"/><path d="m125.447658 3.33436037 1.712299-1.59070311 1.392179 1.56679026-1.719664 1.58472489z"/><path d="m91.1251535 8.77621909.8300732-.67658344.1192972.11898267-.8082756.66405894v5.40953634s-1.535547.7206801-2.6074549 1.256363c-1.0707296.535422-2.2150994 1.1647776-2.2150994 1.1647776l-2.8171824-2.1015052-.744945.5732564-.1204755-.1192436.783238-.6043067v-5.81684317h.0103096s1.3290597-.53255179 2.4495701-1.09302275c1.0029805-.50124056 2.1246692-1.08075919 2.1246692-1.08075919zm-4.907977 4.76739521 2.3806428 1.9076366v-5.83876112l-2.3806428-1.95121131z"/><path d="m160.785863 5.62880985c.205624.36003026.756345 1.4306608-1.361642 3.8251864l1.72493 1.36606075v3.5238098s-2.003874 1.0219777-3.898871 2.378308c0 0-1.057616-1.2976767-1.976035-.6778948-.620181.4181432-.336551 1.1255.534459 1.4439051-.291899.0840611-1.559549-.2175858-1.863851-1.5055319-.296033-1.2560516.592893-2.1058527 1.936067-3.4427219l-1.585458-1.4212005v-2.71266047l.141664-.07048945c.33764-.16941093 1.215422-.61814596 1.936356-1.05879467.912906-.56112825 1.847036-1.16793601 1.847036-1.16793601s.681097.84358442 1.450948.77547059c1.205356-.10379251 1.149402-1.03522216 1.114397-1.25551094zm-37.840549-5.44151147c.450665.03892219 1.157395.25623776 1.689924.71384379.565881.53869393.694327 1.35633023.49642 2.09936566-.176682.66167724-.373762 1.00576022-1.063403 1.46336626-.69543.46057925-1.537498.42165706-1.537498.42165706v2.86834922l1.423384 1.12901382-1.423384 1.12577031v3.9070852s1.425589-.8014187 2.310105-2.5956236l.012557-.0322049c.016967-.0426663.051575-.1271779.106518-.2502513.078556.4803107.034455 1.4536357-.520676 2.7029299-.417864.9406196-1.178068 1.8461012-2.130942 2.3618202-1.688822.9184556-2.955369 1.0063008-4.313152.7300613-1.59042-.3208377-3.034201-1.1973979-4.019875-2.7256345-.692949-1.073874-1.003591-2.3258712-.974374-3.6730114.055403-2.64454665 2.061206-4.92527891 4.377376-5.77535036.281424-.10379251.393332-.17190634.794107-.20785531-.184676.1235239-.398018.28245617-.659046.451119-.745595.48031065-1.384519 1.43741813-1.657675 2.17396653l4.494245-1.96638151v6.16213965l-3.624062 1.7812308c.413454.5611282 1.667598 1.41147 2.741751 1.53148 1.825538.1978545 2.896935-.5838328 2.896935-.5838328v-3.9916869l-1.41484-1.12577031 1.41484-1.1257703v-2.87159274c-.771506-.08757493-1.708943-.33732565-2.256908-.4703098-.806511-.19488125-3.494513-.93467317-3.916512-.99629997-.421998-.0616268-.943226-.0421657-1.258002.23380344-.315603.27894237-.510478.76898356-.376519 1.21010172.076076.24975072.251104.39597923.383961.53869393 0 0-.155459-.01297406-.436607-.17866367-.507722-.29840346-.893612-.88250661-.939919-1.60256714-.059262-.94413342.336827-1.79447517 1.130934-2.36533396.690193-.43490142 1.470243-.71384379 2.377912-.58734667 1.323328.1848804 3.10311.91818529 4.688568 1.29118962.614393.1462285 1.089589.19488124 1.520959-.05189626.201215-.1427147.554856-.50923199.265989-.99602967-.337654-.57112909-.984296-.55815503-1.53226-.65870402.471613-.09730547.574976-.09730547.929169-.06487032zm-28.1863712 6.02215487 1.4991842 1.76501323 1.674213-1.6774383s.2304317.19785447.4457034.30164698c.1229336.05838328.6295526.31489133 1.0945505.06487031.2519313-.13622766.2880396-.17190634.5642271-.42841439.056505 1.30470427-.5818678 2.22288956-1.3787315 2.60238092-.326353.15568876-1.2786753.45436252-2.2750994-.7365484v6.0286149l1.060096.9184556.8845159-.7173576.1022609.1267674-2.7709686 2.2677582-2.108064-1.8812393-.7585503.7003292-.1243118-.1297407 1.1551904-1.0219778.0096473-5.20476178-.8861697-1.15171844-.7615822.65870402-.1105301-.12001009zm63.0078792 4.79224065c-1.149402 1.1327979-3.195173 2.7710438-3.448758 3.7703169 0 0 .910426-1.47607 2.474109-1.1582054 1.500562.3051608 2.020963 1.8593455 2.020963 1.8593455v-3.5786792zm-40.165263-4.51332531-1.824986.7981752s-.465549 1.0219778-.384237 2.50480515c.063948 1.15847576.724647 2.54426796 1.232093 3.12512756l.97713-.4773374zm39.037911.80787872v2.81969649l.957009.8176363s2.079122-1.63202909 2.834089-3.14404808c0 0-.934131 1.24253687-2.192409.86304552-1.052929-.31462105-1.598689-1.35633023-1.598689-1.35633023z"/><path d="m103.716315 9.94244711 3.126-4.24977104s.41218.45575068 1.130225.63394087c.976319.23724008 1.82851-.64356574 1.82851-.64356574-.163091 1.13677538-.779552 2.42650819-2.052551 2.62316773-1.121319.17480848-2.164432-.64018403-2.164432-.64018403l-.20289.29342852 4.339998 6.12688118.868055-.7117203.11216.1183599-2.978495 2.4324912z"/><path d="m100.350526 4.13187399c0-.98840283-.3992704-1.59701699-.9212227-1.55332449l3.3853677-2.41064981v13.64410431h.000553l.893591.9545131.677239-.5951703.10638.1279967-2.728023 2.4140107-1.8476943-1.7586232-.7399621.6593087-.117156-.1279967 1.2909274-1.1396461z"/><path d="m72.6973845 4.73113848c-.000268-.90543915-.3584033-1.41087737-.9384965-1.42436673-.8347553-.01982111-1.0328555 1.18981697-1.0328555 1.18981697s-.151725-.9318673.607704-1.77811843c.4270279-.47240304 1.2237179-1.1366854 2.4694173-.82918295 1.2864452.32044122 1.6518182 1.34480701 1.6518182 2.25024617v12.47518419s.4860024.0597386.8194756.1359948c.3868182.0823127.7532634.1883005.7532634.1883005v-15.04311863h.1597669v2.02891049l2.6377623-2.1811476 1.9322145 1.76490436.9012355-.79972659.1024009.12553368-.9417133.83276176v11.59975203c-.0466434.7565055-.1653963 1.5262252-.8612937 1.9694471-1.552098.9450814-3.4245339-.1453547-5.0924361-.3931186-1.2379254-.1885758-3.1813987-.4294573-3.6692775.7366845-.1592308.383208-.1482401.974813.4133567 1.3613246 1.1269464.773849 6.1453964-1.2985578 7.8666436-.4757066 1.5692541.7498986 1.5633566 1.9366873 1.3210256 2.7529315-.4079953 1.5300793-2.2890094 1.7979395-2.2890094 1.7979395s.9200001-.5489345.6578322-1.4576772c-.1329603-.4591889-.4366783-.5883014-1.4215501-.4759818-2.1509558.2513426-4.7222379 1.3216824-6.4496506.5786662-.8905128-.3801799-1.5201981-1.5237476-1.4590793-2.6469436.0442308-1.6162461 1.8614453-2.2541003 1.8614453-2.2541003l-.0005361-5.9785413c-.0520047-.2378532-1.0215968-.1750864-1.2336364.2645568-.3222145.6645576.4007576.9684812.4007576.9684812s-.599394.0924985-1.1017483-.50241c-.2444755-.2909848-.755676-1.3087436-.0911422-2.25052142.546049-.77660196 1.2006644-.91204619 2.0263054-1.00454469zm4.4900934 12.25412382s.7655944.2081216 1.3234383-.2615285c.6200349-.5252593.554627-1.2619438.554627-1.2619438v-4.646673s-.3592075-.4759818-.9304546-.4759818c-.570979 0-.9476107.4924994-.9476107.4924994zm1.8780653-12.19796402-1.2666084-1.14329243-.6114569.49552766v4.30613539s.3766317.48892063.9476107.48892063c.5712471 0 .9304546-.46909952.9304546-.46909952zm0 3.93586611s-.3624242.42312557-.9334033.42312557c-.570979 0-.944662-.42642908-.944662-.42642908v1.83758172s.373683-.4264291.944662-.4264291c.5709791 0 .9334033.4030292.9334033.4030292z"/></g><g transform="translate(355.462687 -.209624)"><path d="m.04870818.4854929v4.25040561h2.1833254v9.92277969h-2.1833254v3.9480268h11.64179102v-3.9509664h-2.18203011v-9.91984009h2.18203011v-4.25040561z"/><path d="m13.242738 4.42488684v4.04574809h1.6965399v6.09558467h-1.6965399v4.0404854h9.4001281v-4.0404854h-1.7920192v-3.5026015c0-1.48181209 1.0402152-2.57487145 2.4224372-2.57487145 1.0887822 0 1.9360656.57274041 1.9360656 1.84596015v4.2315128h-1.7435794v4.0404854h9.1799528v-3.9787005c-.0087204-.0208456-.0165497-.042443-.0266069-.0632202h-1.4999798v-5.34712637c0-3.4073954-2.32473-4.65621556-5.1828074-4.65621556-2.0341546 0-3.5847384.59823352-4.9406718 2.26389661-.097007.12965257-.2184566.28507163-.3391425.38916276v-2.7896149z"/><path d="m40.1578704 4.43172772c-4.1793096 0-8.2840125 2.16674864-8.2882667 7.08782398.0013334 1.0468561.1876915 1.9694362.5202152 2.7726361h.0265409v.0620374c1.2532659 2.928501 4.4737998 4.2524798 7.7415106 4.2524798 2.6628566 0 6.3620165-.6767778 7.1932305-5.0041719l.0408909-.4608876-4.8736283-.0030851-.1655952-.0006707c0 1.4630768-1.0054446 2.1548777-2.1468956 2.1548777-2.174897 0-2.3440479-1.9165199-2.3440479-3.7528272v-.0370883-.002951c0-1.83637425.1691509-3.75128456 2.3440479-3.75128456 1.7104304 0 2.0000315 1.5679703 2.0616852 3.05270986l5.0590974-.5874439c-.5401526-5.44654897-5.6137904-5.78899546-6.883565-5.78899546-.1820404 0-.2852199.00684088-.2852199.00684088"/><path d="m47.3919918 16.2434906c0 1.3062404.8689531 2.3632144 1.9409333 2.3632144 1.0708259 0 1.9396637-1.056974 1.9396637-2.3632144 0-1.3053967-.8688378-2.3640583-1.9396637-2.3640583-1.0719802 0-1.9409333 1.0586616-1.9409333 2.3640583"/></g><path d="m131.787745 11.5404957v-6.95314178c0-2.54280075-.571396-3.30915038-1.616723-3.30915038-1.045398 0-1.576042.72828988-1.576042 3.34558605v6.89594621c0 2.451641.472507 3.3662753 1.576042 3.3662753 1.083729 0 1.616723-.9745837 1.616723-3.3455154zm2.30019-3.49676585c0 4.18085275-1.383605 7.50130105-3.916557 7.50130105-2.469685 0-3.857209-3.3204483-3.857209-7.50130105 0-4.17922871 1.328247-7.43075987 3.857209-7.43075987 2.50253 0 3.916557 3.25153116 3.916557 7.43075987zm14.528994-3.71248485c0-2.30159091-.917796-2.96061064-2.169809-2.96061064h-.484404v6.19498329h.558215c1.3073.00042352 2.095998-.87904618 2.095998-3.23437265zm2.984868 9.097339c0 1.2354237-.471366 2.1164469-1.686687 2.1164469-1.216461 0-1.731217-.8923917-1.819348-2.7206012l-.128743-2.7386778c-.071104-1.44958924-.626612-1.84226133-1.463828-1.84226133h-.539692v5.79715633c0 .6053548.242167.8453642.745166.8453642h.459468v.5478768h-4.469999v-.5478768h.427835c.501788 0 .81228-.2400094.81228-.8453642v-11.91700854c0-.60147112-.304222-.84543482-.793756-.84543482h-.781787c-.462318 0-.741247.38490481-.741247 1.0646844v9.80176216c0 1.9546752-.655467 3.4003808-2.781816 3.4003808-2.263071 0-3.581058-1.373964-3.581058-3.4003808v-10.02101174c0-.60810863-.296314-.84543482-.797675-.84543482h-.41216v-.55599714h4.474844v.55599714h-.408171c-.505279 0-.797675.23732619-.797675.84543482v10.14987824c0 1.6543633.658175 2.5365869 1.782657 2.5365869 1.137448 0 1.834025-.7306907 1.834025-2.5365869v-9.93062866c0-.67977959-.259195-1.0646844-.72422-1.0646844h-.462247v-.55599714h7.014422c2.453869 0 3.989157 1.24989909 3.989157 3.57112007 0 2.42968068-1.707562 3.34558605-3.212429 3.63763637v.03643567c1.235057.1276661 2.360679 1.03841681 2.434134 2.43476469l.167144 3.209729c.031562.6444737.110574.8324423.425056.8324423.36984 0 .463458-.2768688.463458-1.2357768v-.5321303h.572892zm12.765716-2.2381815-1.113795-6.51097082h-.035552l-1.109805 6.51097082zm10.790268 4.2441916h-11.348554v-.5493597h.113424c.766041 0 1.001938-.2024439 1.001938-.6249142 0-.1186278-.027644-.2764451-.05657-.4464077l-.351529-1.9429537h-2.519914l-.351673 1.9429537c-.032773.1852147-.055287.3171881-.055287.4464077 0 .4553753.177831.6249142.943872.6249142h.075094v.5493597h-3.176877v-.5493597h.167073c.657034 0 1.026874-.1514622 1.193947-1.0137027l2.575629-13.29577412h.943872l2.655354 13.23850802c.159235.8023616.578093 1.0713925.934752 1.0713925h.296385c.50015 0 .81342-.2216504.81342-.8258048v-11.95499767c0-.60542538-.31327-.82587536-.81342-.82587536h-.405392v-.55599714h4.477552v.55599714h-.423916c-.501789 0-.817482.22044998-.817482.82587536v12.68639447h1.093989c2.002309 0 2.525044-2.2440423 2.525044-4.3526512v-.0559951h.509625v5.0519903zm-48.753912-14.15561383h-.405392c-.50414 0-.81741.23612579-.81741.84543482v10.25946771c0 2.3028619-1.458699 3.1603713-3.323146 3.1603713-1.331026 0-2.67117-1.0791598-2.67117-3.1603713 0-1.1155249.700494-1.5971678 1.2627-1.5971678.58194 0 1.001938.4072181 1.001938 1.099849 0 .8873783-.522664 1.2616913-1.204563 1.3584294 0 .7607713.58707 1.640241 1.591716 1.640241.967668 0 1.302241-.5309299 1.302241-2.1152464v-10.64557291c0-.60810863-.294746-.84543482-.799242-.84543482h-.463458v-.55599714h4.526142v.55599714zm33.795872 0h-.397483c-.462247 0-.834866.34733934-.834866 1.0646844v13.14692453h-.725359l-4.635576-11.5825912h-.036763v9.9059145c0 .7216524.36984 1.0713219.834865 1.0713219h.393565v.5493597h-3.121661v-.5493597h.392354c.462247 0 .834865-.3496695.834865-1.0713219v-11.61782645c0-.51419497-.202767-.91745883-.72657-.91745883h-.500221v-.55564409h2.821357l3.765159 9.47165207h.032773v-7.85097053c0-.72398257-.369769-1.0646844-.829237-1.0646844h-.388435v-.55599714h3.121661v.55599714zm17.531602 13.25538423c0 .5545143-.412089 1.0098896-.852962 1.0098896-.436954 0-.850682-.4553753-.850682-1.0098896 0-.5493596.413301-.9941432.850682-.9941432.440517 0 .852962.4447836.852962.9941432zm-88.3694046-10.2031195c0-2.30159091-.9162287-2.96061064-2.1698803-2.96061064h-.4831931v6.19498329h.5582868c1.3073714.00042352 2.0947866-.87904618 2.0947866-3.23437265zm2.9899978 9.097339c0 1.2354237-.4740736 2.1164469-1.6878273 2.1164469-1.2203796 0-1.7339949-.8923917-1.8193481-2.7206012l-.1292409-2.7386778c-.0698928-1.44330479-.6293195-1.84226133-1.466536-1.84226133h-.5396915v5.79715633c0 .6053548.2422378.8453642.7423875.8453642h.4819819v.5478768h-4.488167v-.5478768h.425056c.5017884 0 .8162701-.2400094.8162701-.8453642v-11.91700854c0-.60697884-.3144817-.84543482-.8162701-.84543482h-.425056v-.55599714h4.0614724c2.4567184 0 3.9892284 1.24989909 3.9892284 3.57112007 0 2.42968068-1.7024327 3.34558605-3.2097216 3.63763637v.03643567c1.2350564.1276661 2.3606783 1.04392453 2.4317822 2.43476469l.168284 3.209729c.0304934.6444737.1094345.8324423.4251273.8324423.36984 0 .4622466-.2768688.4622466-1.2357768v-.5321303h.5780221zm-17.2198989-1.5572015c0 2.60042-1.5918584 3.6728716-3.4518882 3.6728716-1.3496918 0-1.9667569-.4396995-2.6159541-.8805994l-.3500335.7698096h-.3895041v-5.0508605h.5001497v.148779c0 3.5464765 1.8023915 4.3542753 2.7079332 4.3542753 1.3179872 0 1.984141-.9617324 1.984141-2.3384503 0-1.6857149-1.0702634-2.92269208-2.6170228-4.07740648-1.3982106-1.05296284-2.6881979-2.34198085-2.6881979-4.48702545 0-2.21706861 1.3756967-3.37022956 3.0239822-3.37022956 1.3717782 0 2.0090061.55719754 2.3749276.86887793l.3725474-.72009891h.3697688v5.07437421h-.5001497v-.14602515c0-2.75202345-.8360053-4.41027044-2.485502-4.41027044-1.0031493 0-1.598128.72673642-1.598128 1.89437278 0 1.3818725.8253183 2.16580446 2.3590396 3.34163179 1.6965193 1.30596484 3.0038908 2.68268267 3.0038908 5.35597398zm7.8290532-6.05446569h-.4990098v-.05599514c0-2.36704803-.9071091-4.38951058-1.9683243-4.38951058h-.4425114v12.66958891c0 .6065552.3121305.8454348.8134914.8454348h.3895753v.5478062h-4.4893782v-.5478062h.4251273c.5029283 0 .81741-.24008.81741-.8454348v-12.66958891h-.3895754c-1.0611439 0-1.9655457 1.89599686-1.9655457 4.38951058v.05599514h-.5017884v-5.09393368h7.8097455v5.09393368zm17.0903725 9.61732419h-7.5896649v-.5478062h.4080994c.5017884 0 .7993134-.24008.7993134-.8454348v-11.91700858c0-.60655517-.297525-.8453642-.7993134-.8453642h-.4080994v-.55606776h7.5896649v5.057498h-.5029991v-.05479474c0-2.99704631-.9161575-4.3542753-2.598855-4.3542753h-1.2429647v6.10262293h.3161203c.9453685 0 1.3942208-.90566667 1.3942208-2.79502602v-.05479474h.500221v6.36614611h-.500221v-.0364357c0-1.86076158-.4306845-2.81853974-1.3942208-2.81853974h-.3161203v6.65713724h1.1690109c1.6601837 0 2.6728088-1.6011927 2.6728088-4.3358456v-.053665h.5029991zm8.090172 0h-7.589594v-.5478062h.409239c.500221 0 .797675-.24008.797675-.8454348v-11.91700858c0-.60655517-.297454-.8453642-.797675-.8453642h-.409239v-.55606776h7.589594v5.057498h-.50015v-.05479474c0-2.99704631-.920147-4.3542753-2.597715-4.3542753h-1.244105v6.10262293h.314482c.947791 0 1.392653-.90566667 1.392653-2.79502602v-.05479474h.50015v6.36614611h-.50015v-.0364357c0-1.86076158-.426623-2.81853974-1.392653-2.81853974h-.314482v6.65713724h1.167871c1.658973 0 2.673949-1.6011927 2.673949-4.3358456v-.053665h.50015zm8.46165-9.61732419h-.503v-.05599514c0-2.36704803-.90433-4.38951058-1.966685-4.38951058h-.444863v12.66958891c0 .6065552.314482.8454348.816199.8454348h.410878v.5478062h-4.511892v-.5478062h.426766c.502857 0 .817338-.24008.817338-.8454348v-12.66958891h-.389575c-1.062355 0-1.965474 1.89599686-1.965474 4.38951058v.05599514h-.503v-5.09393368h7.813664v5.09393368zm-71.0721325 5.37348569-1.1137237-6.51097082h-.0383306l-1.1125838 6.51097082zm10.7812192 4.2458156h-11.3208394v-.5517604h.0947577c.76768 0 1.0031493-.202444 1.0031493-.6237845 0-.1186277-.024865-.2764451-.0552872-.4447835l-.356802-1.9452839h-2.5226213l-.3500335 1.9452839c-.0328446.1828138-.0564984.315564-.0564984.4447835 0 .4565758.1801821.6237845.9454397.6237845h.0738825v.5517604h-3.1729585v-.5517604h.1670729c.6503371 0 1.0217446-.1499794 1.1876775-1.0153268l2.5787634-13.29337332h.9477909l2.6542134 13.23977902c.1580246.7999608.5740323 1.068568.9269157 1.068568h.2974537c.5017884 0 .8162701-.2204499.8162701-.8258753v-11.95457407c0-.60422498-.3144817-.82347456-.8162701-.82347456h-.3895753v-.55719754h4.4526864v.55719754h-.4093106c-.5001498 0-.81627.21924958-.81627.82347456v12.69034877h1.0951996c2.0023089 0 2.5226214-2.2467962 2.5226214-4.3722813v-.0559951h.5029283v5.0704905zm-13.4164098-14.1564611h-.1489762c-.7147439 0-1.0809504.12808977-1.3350151 1.33879932l-2.7079332 12.92689818h-.8371452l-1.6890384-8.4563959h-.0185954l-1.7245191 8.4563959h-.8360053l-2.6542134-13.2585617c-.1687115-.84303402-.4133004-1.00748885-1.167871-1.00748885h-.0552872v-.55684449h4.0073251v.55719754h-.0750937c-.5763834 0-.7213698.16452545-.7213698.55056004 0 .08614637.0158167.25963951.0367631.36534534l1.6889672 8.97715782h.0343407l1.0951997-5.90801688-.572821-2.97748685c-.1422791-.73457433-.3121305-1.00755947-.911099-1.00755947h-.0908392v-.55719754h3.9686383v.55719754h-.0723151c-.7056244 0-.8901525.24671756-.8913637.75025015 0 .13825786.0209464.29212092.0541472.4604594l1.6906059 8.57114005h.0367631l1.5957769-8.5906289c.0236538-.1253359.0382593-.29607518.0382593-.40453488 0-.53255403-.197495-.78668582-.984554-.78668582h-.1117856v-.55719754h3.3598378v.55719754zm21.0613623 14.1564611h-7.3672341v-.5517604h.4081707c.5029283 0 .81627-.22045.81627-.8258048v-11.95499767c0-.60422498-.3133417-.82347456-.81627-.82347456h-.4081707v-.55677387h4.4550375v.55719755h-.3923539c-.5001498 0-.8161988.21924957-.8161988.82340394v12.69041941h1.0979783c1.9971079 0 2.5198427-2.2625426 2.5198427-4.3554757v-.0559952h.5029283zm-56.14643876-9.61930129h-.50014974v-.05479474c0-2.36824843-.90718042-4.39191138-1.96561695-4.39191138h-.44642995v12.67078931c0 .6081086.31726022.8431046.81627001.8431046h.46345784v.5516899h-4.58028863v-.5516899h.44365134c.50022098 0 .81513008-.2373262.81513008-.8431046v-12.67078931h-.38957533c-1.05843653 0-1.96561695 1.89599686-1.96561695 4.39191138v.05479474h-.50171716v-5.09393368h7.81088544zm9.98347316 9.61930129h-4.4538262v-.5517604h.3911427c.4990098 0 .81627-.2372556.81627-.8442344v-5.77802061h-3.2480522v5.77766751c0 .6092384.3160491.8442344.8174812.8442344h.3911428v.5516899h-4.45382628v-.5516899h.38836414c.50292834 0 .81740995-.2373262.81740995-.8442344v-11.91665551c0-.60690823-.31448161-.84303402-.81740995-.84303402h-.38836414v-.55677387h4.45382628v.55719755h-.3911428c-.5017884 0-.8174812.23605517-.8174812.84303401v5.35081933h3.2480522v-5.351243c0-.60690823-.3172602-.84303402-.81627-.84303402h-.3911427v-.55677387h4.4538262v.55719755h-.3883641c-.5017172 0-.81627.23605517-.81627.84303401v11.91658494c0 .609309.3145528.8442344.81627.8442344h.3883641zm8.0720748 0h-7.5884542v-.5517604h.4069594c.5029284 0 .7992422-.2372556.7992422-.8442344v-11.91700861c0-.60690823-.2963138-.84303402-.7992422-.84303402h-.4069594v-.55677387h7.5884542v5.057498h-.5029284v-.05599514c0-2.99591652-.9162287-4.3542753-2.5949364-4.3542753h-1.2453158v6.10382333h.3172602c.9465797 0 1.3903023-.89909977 1.3903023-2.79502601v-.05599514h.5041395v6.36607546h-.5041395v-.0379891c0-1.85793714-.4239161-2.81846916-1.3903023-2.81846916h-.3172602v6.66095026h1.1690109c1.6601837 0 2.6712413-1.6034523 2.6712413-4.3358456v-.0575486h.5029284z" mask="url(#a)" transform="translate(446.268657 2.851627)"/><g transform="translate(197.134328 1.341555)"><path d="m56.5383203 5.47360944c0 2.36373192-.2405742 9.69103336-.2405742 9.69103336 0 1.4179716.4811485 2.0480325 1.8416843 2.0480325v.6307298h-5.363311v-.6307298c1.3605358 0 2.0808994-.6300609 2.0808994-2.0480325l.480469-11.97584044c-.4002776-.9457603-.8005551-1.26079079-1.8410048-1.33904677v-.55180499h4.082287l4.3228613 11.1879298 4.4030527-11.1879298h3.6820095v.55180499c-1.0404497 0-1.6004305.4722113-1.6004305 1.57515242l.4804689 11.58121619c0 1.733671.3194065 2.2065511 1.7601338 2.2065511v.6307298h-6.163866v-.6307298c1.2015121 0 1.7614929-.3939553 1.681981-2.2065511 0 0-.2405742-8.11454315-.3207657-9.53251476l-2.9616458 8.03628716c-.4002775 1.0240163-.8005551 2.2058823-1.1213207 3.4666731l-.9602583.0789248c-.2398947-.8668355-.8807465-2.4426567-.8807465-2.4426567s-2.4811769-6.85442128-3.3619234-9.13922836"/><path d="m51.4651391 17.6062199c-.3275713-.0792857-.6551425-.0792857-.9834092-.0792857-.6551424 0-1.8019894.3164709-3.194341.3164709-5.3252926 0-9.2575382-3.0867671-9.2575382-8.78593113 0-4.82769314 3.6860456-8.54740215 9.3389094-8.54740215 1.3109804 0 2.7853986.23785711 4.0143123.71222752.2455045-.23718521.3282667-.39575662.5737712-.63294182h.4917046c-.0820667.87079893-.4096379 3.71970901-.4096379 3.71970901h-.4917046c-.3282667-1.66231215-1.2289137-2.77029629-4.0963789-2.77029629-3.440541 0-6.5535108 2.61239679-6.5535108 7.44008994 0 5.46130682 3.194341 7.83517462 6.7169487 7.83517462 2.2943895 0 3.686741-1.2658836 4.5880835-2.8489101l.5737712.2378571z"/><path d="m36.8582223 4.12075714h-.5539813c-.0785646-1.52466297-.5533098-2.00563351-1.739837-2.00563351h-2.2938184v12.59856677c0 2.0867036.3955091 2.4879665 1.7398371 2.4879665v.6417482h-5.9319646v-.6417482c1.3449994 0 1.7405085-.4012629 1.7405085-2.5683554v-12.51817787h-2.2938183c-1.5034717 0-1.7405085.40058169-2.1360176 2.00563351h-.5533098l.3955091-3.61068532.3948375.07970758c.1584723.40126295.4747452.40126295 1.4242356.40126295h7.6724731c1.423564 0 1.739837 0 2.05611-.48097053h.4747451z"/><path d="m5.22426094 16.640064c-1.09612895 0-1.95761053-.1504-2.58378001-.37696-.62683421-.1504-1.09612896-.37696-1.33144106-.528-.31308474.30208-.54773211.6784-.54773211.6784l-.46995948-.1504.39152211-3.54304.54839684.07488c.31308474 1.65888 1.48698634 2.86528 3.91455635 2.86528 1.87917317 0 3.13217686-1.50848 3.13217686-3.16672 0-1.3568-.54773212-2.0352-2.42757001-3.392-.62616949-.37696-1.1739016-.67904-1.64386107-1.056-1.72296317-1.05536-2.8184274-2.26112-2.8184274-4.22144 0-2.26176 1.95694582-3.7696 4.54139056-3.7696 1.48698634 0 2.42690528.45248 2.73999002.60288l.54839684-.60288.39085739.07552-.39085739 3.2416-.54839684-.07552c0-1.50784-.93925422-2.18624-2.50534265-2.18624-1.48765106 0-2.58444474.75392-2.58444474 2.18624 0 1.28192 1.01835631 2.11136 2.19292263 2.86528.62616949.37632 1.09612896.6784 1.56542371.97984 2.74065471 1.8848 3.36748891 3.09056 3.36748891 4.89984 0 2.63872-2.11448522 4.59904-5.48130946 4.59904" transform="translate(13.970149 .510072)"/><path d="m10.4661785 4.18410648h-.6389178c0-1.43760677-.63959603-1.99637469-1.91810983-1.99637469h-3.59476028v6.30987312h2.31692474c1.19847952 0 1.43790412-.63878565 1.59797269-1.67765998h.55888348v4.47353387h-.55888348c-.16006857-1.1982317-.39949317-1.67765995-1.67800697-1.67765995h-2.23689046v5.35169465c0 1.9970528.4788492 2.237106 1.757363 2.237106v.6387856h-6.07175359v-.6387856c1.5179384 0 1.757363-.3994106 1.757363-2.237106v-11.7415855c0-1.11889206-.4788492-1.59764224-1.757363-1.59764224v-.55944603h8.30864405c1.43790411 0 1.75804125-.07933962 1.99746585-.55876791h.5595617z"/><path d="m86.7784094 4.45338555-2.2525059 7.00271375h4.6661979zm10.0570499.76958641v9.23438364c0 2.0010553.482875 2.3858485 1.769631 2.3858485v.6154078h-9.4935819v-.6154078c.724654 0 1.368032-.2312679 1.368032-.6931504 0-.3070506-.080593-.8466757-.241779-1.3849942l-.723971-2.2316699h-5.3095759c-.080593.3077039-1.04566 2.847731-1.04566 3.5402281 0 .6154078.723971.7695864 1.206846.7695864v.6154078h-4.425102v-.6154078c.804564 0 1.447942-.0770893 2.01141-1.6933514l4.1027299-12.54334388c-.241096-.5389718-.562785-.69249711-1.1262529-.76958641v-.53897181h3.6205379l4.344509 13.159405c.402282 1.3856475.8045639 2.0774913 1.4479419 2.3858485.965067-.3083572 1.206846-.6160611 1.206846-2.3858485v-11.08126037c-.724654-.92376501-.804564-1.53917282-2.1725959-1.53917282v-.53897181h4.1034129l6.7582007 11.0048244v-8.38836126c0-1.69269812-.402282-2.07749133-1.769631-2.07749133v-.53897181h9.010024v.53897181c-.562785 0-1.04566.23061461-1.04566.76958641 0 .38479321.160503.76958641.321689 1.23146892l2.574195 5.31001558 2.494285-5.15649028c.401599-.69249711.482192-1.07729031.482192-1.46208352 0-.4618825-.321006-.69249711-1.04566-.69249711v-.53897181h4.263916v.53897181c-1.04566 0-1.689038.92311172-2.171913 2.00105533l-3.298166 6.46374186v4.2327253c0 1.8468767.482875 2.3087592 1.769631 2.3087592v.6154078h-6.114823v-.6154078c1.287439 0 1.770314-.4618825 1.770314-2.3087592v-3.6166642l-3.539945-7.15754556c-.643378-1.38434092-.884474-1.69269812-1.286756-1.92331273-.804564.30770391-1.046343.84667571-1.046343 2.07749133v11.85084676s.080593.923765.161186 2.0010553l-1.04566.0770893z"/><path d="m76.0751656 2.40093632h-.3960159v8.11487118h.7133665c2.6127635 0 3.9594864-1.18124482 3.9594864-4.17582761 0-2.99391391-1.1880476-3.93904357-4.276837-3.93904357m.7920318 9.29678498h-1.1880477v3.3878851c0 1.7337411.4753536 2.1277123 1.8220765 2.1277123v.6300864h-6.0982411v-.6300864c1.2673853 0 1.7420664-.4728993 1.7420664-2.2066403v-11.10878513c0-1.73374103-.4746811-2.04878425-1.7420664-2.04878425v-.55115842h4.5935152c4.43484 0 7.0482758 1.33910091 7.0482758 4.96310126 0 3.78185644-3.168127 5.43666944-6.1775787 5.43666944"/><path d="m49.3233738 5.38089465c-2.0657954 0-2.7806968 1.93992793-2.7806968 4.19011259 0 2.09538566.6359925 4.19011256 2.7806968 4.19011256 2.0657953 0 2.7011134-2.0947269 2.7011134-4.26784142 0-2.09472694-.7938104-4.11238373-2.7011134-4.11238373m0 9.31099535c-3.0187725 0-5.0845678-2.0947269-5.0845678-5.12088276 0-2.87135683 2.1453787-5.12154148 5.0845678-5.12154148 2.8602801 0 5.0049844 2.17311451 5.0049844 5.12154148 0 2.87069806-2.2242876 5.12088276-5.0049844 5.12088276"/><path d="m13.0398841 5.16773298-1.2507534 4.01489119h2.5850319zm1.1672282 7.94839942v-.573854c.8338356 0 1.0008859-.2462355 1.0008859-.4910799 0-.328314-.0835252-.5745495-.1670503-.8200895 0 0-.1663424-.6559325-.3333926-1.147708h-3.2518173l-.3333927 1.0663251c-.0835251.2448444-.1670502.4910799-.1670502.8186983 0 .3276185.3333927.573854.8338356.573854v.573854h-3.25181727v-.573854c.8338356 0 1.1679361-.2462355 1.50062097-1.1477079l2.5015067-7.37315434c-.0828172-.32831404-.3333926-.57385399-.8338356-.57385399v-.57385399h2.6685571c2.1674063 6.22683747 2.7513743 7.86632092 2.7513743 7.86632092.4169178 1.3925524.8338356 1.8022493 1.5013288 1.8022493v.573854z"/></g></g></svg>